STARTFONT 2.1
FONT -gwnce-Regular-R-Regular--9-90-75-75-c-80-iso10646-1
SIZE 9 75 75
FONTBOUNDINGBOX 9 9 0 -2
STARTPROPERTIES 8
FAMILY_NAME "gwnce"
WEIGHT_NAME "Regular"
FOUNDRY "sewergweller"
FONT_ASCENT 7
FONT_DESCENT 2
POINT_SIZE 90
X_HEIGHT 0
CAP_HEIGHT 0
ENDPROPERTIES
CHARS 46
STARTCHAR U+E000
ENCODING 57344
SWIDTH 1000 0
DWIDTH 9 0
BBX 9 9 0 -2
BITMAP
0800
6B00
4900
8880
8880
8080
4100
6300
1C00
ENDCHAR
STARTCHAR U+E001
ENCODING 57345
SWIDTH 1000 0
DWIDTH 9 0
BBX 9 9 0 -2
BITMAP
0F00
6600
4500
8080
8080
8080
4100
6300
1C00
ENDCHAR
STARTCHAR U+E002
ENCODING 57346
SWIDTH 1000 0
DWIDTH 9 0
BBX 9 9 0 -2
BITMAP
0C00
0300
0300
0380
8380
8780
7F00
7F00
1C00
ENDCHAR
STARTCHAR U+E003
ENCODING 57347
SWIDTH 1000 0
DWIDTH 9 0
BBX 9 9 0 -2
BITMAP
1C00
0E00
2E00
4E00
9C00
4000
2F00
8F80
FF80
ENDCHAR
STARTCHAR U+E004
ENCODING 57348
SWIDTH 1000 0
DWIDTH 9 0
BBX 9 5 0 0
BITMAP
FE00
8280
8280
8280
FE00
ENDCHAR
STARTCHAR U+E005
ENCODING 57349
SWIDTH 1000 0
DWIDTH 9 0
BBX 9 5 0 0
BITMAP
FE00
C280
C280
C280
FE00
ENDCHAR
STARTCHAR U+E006
ENCODING 57350
SWIDTH 1000 0
DWIDTH 9 0
BBX 9 5 0 0
BITMAP
FE00
E280
E280
E280
FE00
ENDCHAR
STARTCHAR U+E007
ENCODING 57351
SWIDTH 1000 0
DWIDTH 9 0
BBX 9 5 0 0
BITMAP
FE00
F280
F280
F280
FE00
ENDCHAR
STARTCHAR U+E008
ENCODING 57352
SWIDTH 1000 0
DWIDTH 9 0
BBX 9 5 0 0
BITMAP
FE00
FA80
FA80
FA80
FE00
ENDCHAR
STARTCHAR U+E009
ENCODING 57353
SWIDTH 1000 0
DWIDTH 9 0
BBX 9 5 0 0
BITMAP
FE00
FE80
FE80
FE80
FE00
ENDCHAR
STARTCHAR U+E00A
ENCODING 57354
SWIDTH 1000 0
DWIDTH 9 0
BBX 9 7 0 -1
BITMAP
1000
AA00
8A80
8A80
9280
C600
1000
ENDCHAR
STARTCHAR U+E00B
ENCODING 57355
SWIDTH 1000 0
DWIDTH 9 0
BBX 9 7 0 -1
BITMAP
0800
9200
A280
BA80
8A80
9200
2000
ENDCHAR
STARTCHAR U+E00C
ENCODING 57356
SWIDTH 1000 0
DWIDTH 9 0
BBX 9 7 0 -1
BITMAP
0800
9200
A380
BB80
8B80
9200
2000
ENDCHAR
STARTCHAR U+E00D
ENCODING 57357
SWIDTH 1000 0
DWIDTH 9 0
BBX 7 9 1 -2
BITMAP
3E
3E
22
22
22
22
66
EE
CC
ENDCHAR
STARTCHAR U+E00E
ENCODING 57358
SWIDTH 1000 0
DWIDTH 9 0
BBX 7 7 1 -1
BITMAP
12
24
48
90
48
24
12
ENDCHAR
STARTCHAR U+E00F
ENCODING 57359
SWIDTH 1000 0
DWIDTH 9 0
BBX 7 7 1 -1
BITMAP
90
48
24
12
24
48
90
ENDCHAR
STARTCHAR U+E010
ENCODING 57360
SWIDTH 1000 0
DWIDTH 9 0
BBX 5 7 2 -1
BITMAP
88
88
88
88
88
88
88
ENDCHAR
STARTCHAR U+E011
ENCODING 57361
SWIDTH 1000 0
DWIDTH 9 0
BBX 5 7 2 -1
BITMAP
C0
A0
10
08
10
A0
C0
ENDCHAR
STARTCHAR U+E012
ENCODING 57362
SWIDTH 1000 0
DWIDTH 9 0
BBX 7 7 1 -1
BITMAP
CE
C6
2A
10
2A
C6
CE
ENDCHAR
STARTCHAR U+E013
ENCODING 57363
SWIDTH 1000 0
DWIDTH 9 0
BBX 9 9 0 -2
BITMAP
1800
3800
F800
FA80
F900
FA80
F800
3800
1800
ENDCHAR
STARTCHAR U+E014
ENCODING 57364
SWIDTH 1000 0
DWIDTH 9 0
BBX 9 9 0 -2
BITMAP
1800
3800
F800
FA00
FA80
FA00
F800
3800
1800
ENDCHAR
STARTCHAR U+E015
ENCODING 57365
SWIDTH 1000 0
DWIDTH 9 0
BBX 9 9 0 -2
BITMAP
1800
3900
F880
FA80
FA80
FA80
F880
3900
1800
ENDCHAR
STARTCHAR U+E016
ENCODING 57366
SWIDTH 1000 0
DWIDTH 9 0
BBX 7 9 1 -2
BITMAP
28
10
28
00
BA
92
44
38
10
ENDCHAR
STARTCHAR U+E017
ENCODING 57367
SWIDTH 1000 0
DWIDTH 9 0
BBX 7 9 1 -2
BITMAP
10
38
38
38
BA
92
44
38
10
ENDCHAR
STARTCHAR U+E018
ENCODING 57368
SWIDTH 1000 0
DWIDTH 9 0
BBX 9 9 0 -2
BITMAP
4900
5D00
9C80
1C00
5D00
4900
2200
1C00
0800
ENDCHAR
STARTCHAR U+E019
ENCODING 57369
SWIDTH 1000 0
DWIDTH 9 0
BBX 3 5 3 0
BITMAP
80
40
20
40
80
ENDCHAR
STARTCHAR U+E01A
ENCODING 57370
SWIDTH 1000 0
DWIDTH 9 0
BBX 5 3 2 1
BITMAP
88
50
20
ENDCHAR
STARTCHAR U+E01B
ENCODING 57371
SWIDTH 1000 0
DWIDTH 9 0
BBX 3 5 3 0
BITMAP
20
40
80
40
20
ENDCHAR
STARTCHAR U+E01C
ENCODING 57372
SWIDTH 1000 0
DWIDTH 9 0
BBX 5 3 2 1
BITMAP
20
50
88
ENDCHAR
STARTCHAR U+E01D
ENCODING 57373
SWIDTH 1000 0
DWIDTH 9 0
BBX 9 9 0 -2
BITMAP
3800
4400
8200
8200
8200
4400
3A00
0100
0080
ENDCHAR
STARTCHAR U+E01E
ENCODING 57374
SWIDTH 1000 0
DWIDTH 9 0
BBX 7 7 1 -1
BITMAP
FE
00
00
FE
00
00
FE
ENDCHAR
STARTCHAR U+E01F
ENCODING 57375
SWIDTH 1000 0
DWIDTH 9 0
BBX 9 9 0 -2
BITMAP
6300
9480
9480
7F00
1400
7F00
9480
9480
6300
ENDCHAR
STARTCHAR U+E020
ENCODING 57376
SWIDTH 1000 0
DWIDTH 9 0
BBX 9 9 0 -2
BITMAP
4100
C180
2200
1400
0800
1400
2200
C180
4100
ENDCHAR
STARTCHAR U+E021
ENCODING 57377
SWIDTH 1000 0
DWIDTH 9 0
BBX 9 9 0 -2
BITMAP
0380
0180
0280
0400
0000
1000
A000
C000
E000
ENDCHAR
STARTCHAR U+E022
ENCODING 57378
SWIDTH 1000 0
DWIDTH 9 0
BBX 9 9 0 -2
BITMAP
0080
0500
0600
0700
0000
7000
3000
5000
8000
ENDCHAR
STARTCHAR U+E023
ENCODING 57379
SWIDTH 1000 0
DWIDTH 9 0
BBX 9 9 0 -2
BITMAP
F800
0600
F300
1900
C480
3680
1280
CA80
CA80
ENDCHAR
STARTCHAR U+E024
ENCODING 57380
SWIDTH 1000 0
DWIDTH 9 0
BBX 7 7 0 -2
BITMAP
F0
18
C4
36
12
CA
CA
ENDCHAR
STARTCHAR U+E025
ENCODING 57381
SWIDTH 1000 0
DWIDTH 9 0
BBX 5 5 0 -2
BITMAP
C0
30
10
C8
C8
ENDCHAR
STARTCHAR U+E026
ENCODING 57382
SWIDTH 1000 0
DWIDTH 9 0
BBX 7 7 0 -2
BITMAP
22
14
08
14
22
80
C0
ENDCHAR
STARTCHAR U+E027
ENCODING 57383
SWIDTH 1000 0
DWIDTH 9 0
BBX 7 7 1 -1
BITMAP
82
BA
82
82
82
AA
FE
ENDCHAR
STARTCHAR U+E028
ENCODING 57384
SWIDTH 1000 0
DWIDTH 9 0
BBX 7 7 1 -1
BITMAP
AA
92
28
44
00
AA
FE
ENDCHAR
STARTCHAR U+E029
ENCODING 57385
SWIDTH 1000 0
DWIDTH 9 0
BBX 9 9 0 -2
BITMAP
1C00
7700
5500
FF80
9480
F800
5280
7100
1A80
ENDCHAR
STARTCHAR U+E02A
ENCODING 57386
SWIDTH 1000 0
DWIDTH 9 0
BBX 9 9 0 -2
BITMAP
3000
2800
A000
6A80
3100
6A80
A000
2800
3000
ENDCHAR
STARTCHAR U+E02B
ENCODING 57387
SWIDTH 1000 0
DWIDTH 9 0
BBX 9 9 0 -2
BITMAP
3000
2880
A500
6800
3280
6800
A500
2880
3000
ENDCHAR
STARTCHAR U+E02C
ENCODING 57388
SWIDTH 1000 0
DWIDTH 9 0
BBX 9 9 0 -2
BITMAP
3000
2800
A400
6080
3500
6200
A000
2800
3000
ENDCHAR
ENDFONT
